<svg width="60" height="60" viewBox="0 0 60 60" fill="none" xmlns="http://www.w3.org/2000/svg">
<circle cx="30" cy="30.0001" r="29.5" transform="rotate(-180 30 30.0001)" fill="white" stroke="#FF6501"/>
<path d="M34.6709 20.8073L34.673 20.809L36.3319 22.159C36.5715 22.3539 36.665 22.5836 36.665 22.7859C36.665 22.9879 36.5718 23.2152 36.334 23.4067L36.3319 23.4083L29.2556 29.1667L28.779 29.5545L29.2556 29.9423L36.3319 35.7007C36.5715 35.8956 36.665 36.1253 36.665 36.3276C36.665 36.5296 36.5718 36.7569 36.334 36.9484L36.3339 36.9484L36.3294 36.9521L34.6792 38.3129C34.1718 38.7247 33.3218 38.7222 32.825 38.3136L32.823 38.312L22.8397 30.1881L22.8397 30.1881L22.8377 30.1865C22.5949 29.991 22.5007 29.7613 22.5002 29.5592C22.4997 29.357 22.5929 29.1277 22.8324 28.9328L32.8157 20.809C33.3229 20.3962 34.1738 20.3984 34.6709 20.8073Z" fill="#FF6501" stroke="#FF6501"/>
</svg>
