<svg width="60" height="60" viewBox="0 0 60 60" fill="none" xmlns="http://www.w3.org/2000/svg">
<circle cx="30" cy="30.0001" r="29.5" fill="white" stroke="#FF6501"/>
<path d="M25.3291 39.1929L25.327 39.1913L23.6681 37.8413C23.4285 37.6464 23.335 37.4167 23.335 37.2144C23.335 37.0124 23.4282 36.7851 23.666 36.5936L23.6681 36.5919L30.7444 30.8336L31.221 30.4457L30.7444 30.0579L23.6681 24.2996C23.4285 24.1046 23.335 23.875 23.335 23.6726C23.335 23.4707 23.4282 23.2434 23.666 23.0519L23.6661 23.0519L23.6706 23.0482L25.3208 21.6874C25.8282 21.2755 26.6782 21.278 27.175 21.6866L27.177 21.6883L37.1603 29.8121L37.1603 29.8121L37.1623 29.8137C37.4051 30.0093 37.4993 30.239 37.4998 30.441C37.5003 30.6433 37.4071 30.8725 37.1676 31.0674L27.1843 39.1913C26.6771 39.604 25.8262 39.6018 25.3291 39.1929Z" fill="#FF6501" stroke="#FF6501"/>
</svg>
